<?xml version="1.0" encoding="UTF-8"?>
<svg width="898px" height="508px" viewBox="0 0 898 508" version="1.1" xmlns="http://www.w3.org/2000/svg" xmlns:xlink="http://www.w3.org/1999/xlink">
    <!-- Generator: Sketch 48.2 (47327) - http://www.bohemiancoding.com/sketch -->
    <title>Artboard</title>
    <desc>Created with Sketch.</desc>
    <defs></defs>
    <g id="Page-1" stroke="none" stroke-width="1" fill="none" fill-rule="evenodd">
        <g id="Artboard" fill="#FFFFFF" fill-rule="nonzero">
            <g id="PSA_Logo">
                <path d="M752.11,11.95 C750.73,9.2 747.99,7.82 745.25,7.82 L691.06,7.82 C688.32,7.82 685.58,9.2 684.21,11.95 L588.88,193.05 C587.51,177.21 577.9,161.38 564.87,151.73 C543.61,136.59 506.58,126.26 464.73,122.81 C440.73,120.74 370.09,117.3 348.15,109.73 C331.69,103.53 323.46,94.57 323.46,81.49 C323.46,45.69 390.66,42.92 413.3,42.92 C462.68,42.92 501.09,53.25 533.33,69.78 C536.75,71.84 540.86,70.47 542.92,67.03 L555.96,42.24 C558.02,38.11 557.32,33.29 552.52,30.53 C514.8,9.18 470.22,0.24 418.1,0.24 C379,0.24 341.28,5.74 310.41,24.33 C304.24,27.78 299.44,31.91 294.64,36.04 C280.92,17.45 252.11,7.8 222.63,7.8 L8.65,7.8 C3.84,7.8 0.42,11.25 0.42,15.38 L0.42,288.07 C0.42,292.89 3.84,296.33 8.65,296.33 L40.88,296.33 C44.99,296.33 48.43,292.88 48.43,288.07 L48.43,58.08 C48.43,53.95 51.86,50.5 55.98,50.5 L210.3,50.5 C248.7,50.5 268.59,66.34 268.59,98.7 C268.59,128.32 250.07,143.46 213.04,143.46 L100.56,143.46 L77.93,186.16 L212.36,186.16 C246.64,186.16 272.71,178.58 290.54,163.44 C296.71,157.93 301.51,151.73 305.63,144.85 C324.83,153.8 357.75,160.68 405.07,163.44 C458.57,166.87 491.48,170.32 503.83,173.77 C527.16,179.97 538.81,191.66 538.81,210.26 C538.81,254.34 470.23,261.22 434.57,261.22 C385.87,261.22 337.87,251.57 297.4,224.72 C293.29,221.97 289.85,222.65 287.79,226.1 L273.39,252.96 C270.65,257.78 272.71,261.22 275.45,263.29 C325.52,295.66 383.14,303.22 437.31,303.22 C473.66,303.22 525.78,293.59 542.93,281.19 L538.82,288.76 C537.46,291.52 538.82,296.34 544.31,296.34 L582.03,296.34 C584.78,296.34 587.52,294.27 588.9,292.21 L710.29,61.53 C711.65,58.78 713.03,57.4 716.46,57.4 L720.57,57.4 C723.99,57.4 725.37,58.78 726.74,61.53 L789.15,179.98 C791.89,185.48 789.83,188.93 784.35,188.93 L681.47,188.93 L658.84,231.63 L811.78,231.63 C814.52,231.63 817.27,233 818.64,235.76 L847.44,292.22 C848.82,294.28 851.55,296.35 854.31,296.35 L892.03,296.35 C898.2,296.35 898.2,290.84 896.83,287.4 L752.11,11.95 Z M741.14,505.68 L685.59,505.68 L685.59,452.67 L739.09,452.67 L739.09,460.23 L694.51,460.23 L694.51,474.01 L732.92,474.01 L732.92,482.27 L694.51,482.27 L694.51,498.11 L741.15,498.11 L741.14,505.68 Z M624.54,477.45 C631.4,477.45 634.83,474.69 634.83,469.19 C634.83,462.99 631.4,460.23 623.86,460.23 L592.3,460.23 L592.3,477.45 L624.54,477.45 Z M625.92,452.67 C631.4,452.67 635.51,454.04 638.95,456.8 C642.38,460.23 643.75,463.68 643.75,469.19 C643.75,474.69 642.39,478.14 638.95,481.58 C635.52,484.33 630.72,485.71 624.55,485.71 L592.31,485.71 L592.31,505.67 L584.08,505.67 L584.08,452.66 L625.92,452.67 Z M538.81,488.47 C538.81,493.98 536.07,498.8 530.58,502.25 C525.1,505.68 517.55,507.75 508.64,507.75 C499.71,507.75 492.18,505.68 486.69,502.25 C481.2,498.8 478.46,493.98 478.46,488.47 L478.46,452.67 L487.37,452.67 L487.37,486.41 C487.37,490.54 488.75,493.99 492.86,496.06 C496.29,498.12 501.77,499.49 508.64,499.49 C515.5,499.49 520.99,498.12 524.41,496.06 C527.84,493.99 529.9,490.55 529.9,486.41 L529.9,452.67 L538.81,452.67 L538.81,488.47 Z M430.46,478.82 C430.46,472.62 427.71,467.8 422.23,463.67 C417.42,460.22 411.94,458.85 405.07,458.85 C398.21,458.85 392.04,460.92 387.25,464.35 C382.44,468.48 380.38,473.31 380.38,478.81 C380.38,485.01 382.44,489.84 387.25,493.97 C391.36,497.41 397.54,499.47 405.07,499.47 C412.62,499.47 418.79,497.41 423.59,493.97 C427.7,489.84 430.46,485.01 430.46,478.81 L430.46,478.82 Z M439.37,478.82 C439.37,487.78 435.94,494.66 428.4,500.18 C422.23,505 414.68,507.75 405.07,507.75 C396.16,507.75 387.93,505 381.75,500.18 C374.89,494.67 370.78,487.79 370.78,478.82 C370.78,470.56 374.89,463.67 381.75,458.16 C388.61,453.34 396.15,450.59 405.07,450.59 C414.68,450.59 422.23,453.34 428.4,458.16 C435.94,463.67 439.37,470.55 439.37,478.82 Z M312.49,477.45 C319.36,477.45 322.78,474.69 322.78,469.19 C322.78,462.99 319.36,460.23 311.81,460.23 L280.95,460.23 L280.95,477.45 L312.49,477.45 Z M332.38,505.68 L322.09,505.68 L307.69,485.72 L280.94,485.72 L280.94,505.68 L272.03,505.68 L272.03,452.67 L313.86,452.67 C319.35,452.67 324.15,454.04 326.89,456.8 C330.33,460.23 331.7,464.36 331.7,469.19 C331.7,474.01 330.33,477.45 328.27,480.21 C325.53,482.96 322.1,484.34 317.98,485.03 L332.38,505.68 Z M228.82,478.14 C228.82,487.09 226.07,493.98 219.89,499.48 C213.72,504.99 205.49,507.75 195.2,507.75 C185.61,507.75 178.06,505 171.88,500.18 C164.33,494.67 160.91,487.79 160.91,478.82 C160.91,470.56 164.33,463.67 171.88,458.16 C178.05,453.34 186.28,450.59 195.89,450.59 C207.54,450.59 217.15,454.72 224.69,463.67 L216.46,467.8 C210.97,461.6 204.12,458.85 195.19,458.85 C188.34,458.85 182.85,460.22 178.05,463.67 C172.56,467.8 169.82,472.62 169.82,478.82 C169.82,485.02 172.56,489.85 176.67,493.98 C181.48,497.42 187.65,499.48 195.19,499.48 C206.85,499.48 214.4,494.66 217.82,485.72 L193.13,485.72 L193.13,477.46 L228.8,477.46 L228.8,478.14 L228.82,478.14 Z M162.98,379.66 L741.14,379.66 L741.14,387.24 L162.98,387.24 L162.98,379.66 Z" id="Shape"></path>
            </g>
        </g>
    </g>
</svg>